<svg width="16" height="16" viewBox="0 0 16 16" fill="none" xmlns="http://www.w3.org/2000/svg">
<path d="M8 1.33325C8.36667 1.33325 8.66667 1.63325 8.66667 1.99992V4.66658H13C13.5533 4.66658 14 5.11325 14 5.66658C14 6.21992 13.5533 6.66658 13 6.66658H8.66667V9.33325H11C11.5533 9.33325 12 9.77992 12 10.3333C12 10.8866 11.5533 11.3333 11 11.3333H8.66667V13.9999C8.66667 14.3666 8.36667 14.6666 8 14.6666C7.63333 14.6666 7.33333 14.3666 7.33333 13.9999V11.3333H5C4.44667 11.3333 4 10.8866 4 10.3333C4 9.77992 4.44667 9.33325 5 9.33325H7.33333V6.66658H3C2.44667 6.66658 2 6.21992 2 5.66658C2 5.11325 2.44667 4.66658 3 4.66658H7.33333V1.99992C7.33333 1.63325 7.63333 1.33325 8 1.33325Z" fill="#625DF5"/>
</svg>
