<svg width="16" height="16" viewBox="0 0 16 16" fill="none" xmlns="http://www.w3.org/2000/svg">
<path d="M2.00016 14.6666C1.6335 14.6666 1.3335 14.3666 1.3335 13.9999V1.99992C1.3335 1.63325 1.6335 1.33325 2.00016 1.33325C2.36683 1.33325 2.66683 1.63325 2.66683 1.99992V13.9999C2.66683 14.3666 2.36683 14.6666 2.00016 14.6666ZM13.6668 4.66658H5.00016C4.44683 4.66658 4.00016 5.11325 4.00016 5.66658C4.00016 6.21992 4.44683 6.66658 5.00016 6.66658H13.6668C14.2202 6.66658 14.6668 6.21992 14.6668 5.66658C14.6668 5.11325 14.2202 4.66658 13.6668 4.66658ZM9.66683 9.33325H5.00016C4.44683 9.33325 4.00016 9.77992 4.00016 10.3333C4.00016 10.8866 4.44683 11.3333 5.00016 11.3333H9.66683C10.2202 11.3333 10.6668 10.8866 10.6668 10.3333C10.6668 9.77992 10.2202 9.33325 9.66683 9.33325Z" fill="#91919C"/>
</svg>
