<svg width="24" height="24" viewBox="0 0 24 24" fill="none" xmlns="http://www.w3.org/2000/svg">
<path fill-rule="evenodd" clip-rule="evenodd" d="M13.8324 2.04958C17.7808 2.65982 20.8231 5.37604 21.8635 9.22009C22.1982 10.4571 22.1982 12.6638 21.8635 13.9008C20.9219 17.3799 18.4 19.9018 14.9209 20.8433C14.2283 21.0308 13.7494 21.0788 12.5805 21.0778C10.9936 21.0765 10.2353 20.9339 8.89564 20.3849L8.17873 20.0911L5.96781 20.6412C3.89872 21.1561 3.73795 21.1808 3.46222 21.026C2.91567 20.7193 2.91948 20.4881 3.50957 18.1293L4.05112 15.9651L3.75667 15.2468C3.20707 13.9057 3.06447 13.1478 3.06316 11.5604C3.06218 10.3916 3.11019 9.91272 3.29763 9.22009C4.23312 5.76356 6.77202 3.21062 10.1835 2.29603C10.9866 2.08072 13.1071 1.93757 13.8324 2.04958ZM10.2764 4.07785C8.99176 4.49247 8.06073 5.06689 7.07387 6.05376C5.60805 7.51958 4.87884 9.14661 4.77641 11.1795C4.71382 12.4217 4.88406 13.424 5.34342 14.5189C5.50224 14.8973 5.68794 15.342 5.75598 15.507C5.8595 15.7578 5.81476 16.0698 5.48265 17.4107C5.26407 18.2928 5.09459 19.0238 5.10591 19.0351C5.11723 19.0464 5.84818 18.8769 6.73033 18.6583C8.07118 18.3262 8.38316 18.2815 8.63396 18.385C8.79898 18.453 9.24364 18.6387 9.62213 18.7976C10.717 19.2569 11.7193 19.4272 12.9615 19.3646C14.9944 19.2621 16.6214 18.5329 18.0872 17.0671C19.0667 16.0877 19.6377 15.1664 20.0724 13.8645C20.3164 13.1337 20.351 12.8472 20.351 11.5604C20.351 10.2737 20.3164 9.98718 20.0724 9.25634C19.6377 7.95445 19.0667 7.03322 18.0872 6.05376C16.4264 4.39309 14.6418 3.68696 12.3084 3.76729C11.4185 3.79799 10.8967 3.87767 10.2764 4.07785Z" fill="#91919C"/>
</svg>
