<svg width="24" height="24" viewBox="0 0 24 24" fill="none" xmlns="http://www.w3.org/2000/svg">
<path d="M5.81818 2C4.81403 2 4 2.81403 4 3.81818V7.45455C4 7.95662 4.40701 8.36364 4.90909 8.36364C5.41117 8.36364 5.81818 7.95662 5.81818 7.45455V5.63636H10.3636V20.1818H8.54545C8.04338 20.1818 7.63636 20.5888 7.63636 21.0909C7.63636 21.593 8.04338 22 8.54545 22H15.8182C16.3203 22 16.7273 21.593 16.7273 21.0909C16.7273 20.5888 16.3203 20.1818 15.8182 20.1818H14V5.63636H18.5455V7.45455C18.5455 7.95662 18.9525 8.36364 19.4545 8.36364C19.9566 8.36364 20.3636 7.95662 20.3636 7.45455V3.81818C20.3636 2.81403 19.5496 2 18.5455 2H5.81818Z" fill="#91919C"/>
</svg>
