<svg width="16" height="16" viewBox="0 0 16 16" fill="none" xmlns="http://www.w3.org/2000/svg">
<path d="M14.0002 1.33325C14.3668 1.33325 14.6668 1.63325 14.6668 1.99992V13.9999C14.6668 14.3666 14.3668 14.6666 14.0002 14.6666C13.6335 14.6666 13.3335 14.3666 13.3335 13.9999V1.99992C13.3335 1.63325 13.6335 1.33325 14.0002 1.33325ZM2.3335 6.66658H11.0002C11.5535 6.66658 12.0002 6.21992 12.0002 5.66658C12.0002 5.11325 11.5535 4.66658 11.0002 4.66658H2.3335C1.78016 4.66658 1.3335 5.11325 1.3335 5.66658C1.3335 6.21992 1.78016 6.66658 2.3335 6.66658ZM6.3335 11.3333H11.0002C11.5535 11.3333 12.0002 10.8866 12.0002 10.3333C12.0002 9.77992 11.5535 9.33325 11.0002 9.33325H6.3335C5.78016 9.33325 5.3335 9.77992 5.3335 10.3333C5.3335 10.8866 5.78016 11.3333 6.3335 11.3333Z" fill="#91919C"/>
</svg>
